<?xml version="1.0" encoding="utf-8"?>
<!-- Generator: Adobe Illustrator 16.0.3, SVG Export Plug-In . SVG Version: 6.00 Build 0)  -->
<!DOCTYPE svg PUBLIC "-//W3C//DTD SVG 1.1//EN" "http://www.w3.org/Graphics/SVG/1.1/DTD/svg11.dtd">
<svg version="1.1" id="Livello_1" xmlns="http://www.w3.org/2000/svg" xmlns:xlink="http://www.w3.org/1999/xlink" x="0px" y="0px"
	 width="247px" height="166px" viewBox="0 0 247 166" enable-background="new 0 0 247 166" xml:space="preserve">
<linearGradient id="SVGID_1_" gradientUnits="userSpaceOnUse" x1="59.9087" y1="145.5625" x2="59.9087" y2="26.9736">
	<stop  offset="0" style="stop-color:#ED1C24"/>
	<stop  offset="1" style="stop-color:#A71C20"/>
</linearGradient>
<path fill="url(#SVGID_1_)" d="M90.363,57.152c-1.841-14.09-13.442-24.387-28.534-24.387c-30.534,0-35.168,36.494-35.168,59.708
	C32.12,77.208,44.562,67.767,61.67,67.767c21.552,0,37.802,16.581,37.802,38.637c0,22.402-16.568,39.158-38.976,39.158
	c-13.601,0-25.043-5.98-32.026-16.931c-5.459-8.614-8.125-20.737-8.125-38.317c0-40.794,14.774-63.341,41.643-63.341
	c19.41,0,32.851,12.091,35.168,30.179H90.363z M28.47,106.404c0,18.912,13.934,33.352,32.184,33.352
	c18.251,0,32.026-14.279,32.026-33.178c0-19.088-13.774-33.02-32.343-33.02C42.404,73.559,28.47,87.84,28.47,106.404z"/>
</svg>
