<?xml version="1.0" encoding="utf-8"?>
<!-- Generator: Adobe Illustrator 16.0.3, SVG Export Plug-In . SVG Version: 6.00 Build 0)  -->
<!DOCTYPE svg PUBLIC "-//W3C//DTD SVG 1.1//EN" "http://www.w3.org/Graphics/SVG/1.1/DTD/svg11.dtd">
<svg version="1.1" id="Livello_1" xmlns="http://www.w3.org/2000/svg" xmlns:xlink="http://www.w3.org/1999/xlink" x="0px" y="0px"
	 width="247px" height="166px" viewBox="0 0 247 166" enable-background="new 0 0 247 166" xml:space="preserve">
<linearGradient id="SVGID_1_" gradientUnits="userSpaceOnUse" x1="60.25" y1="822.373" x2="60.25" y2="706.2598" gradientTransform="matrix(1 0 0 1 -0.04 -676.8105)">
	<stop  offset="0" style="stop-color:#ED1C24"/>
	<stop  offset="1" style="stop-color:#A71C20"/>
</linearGradient>
<path fill="url(#SVGID_1_)" d="M94.213,35.764H41.132l-9.45,44.777c6.634-9.124,17.083-13.932,29.024-13.932
	c22.232,0,38.649,16.581,38.649,39.303c0,22.722-16.75,39.65-39.475,39.65c-23.391,0-38.323-14.438-38.815-37.16h6.467
	c0.667,18.248,11.608,31.354,32.349,31.354c18.908,0,32.674-14.105,32.674-33.668c0-19.58-13.766-33.671-32.84-33.671
	c-12.608,0-22.066,5.3-28.699,15.581l-6.467-0.158l11.774-58.391h57.89V35.764z"/>
</svg>
