<?xml version="1.0" encoding="utf-8"?>
<!-- Generator: Adobe Illustrator 16.0.3, SVG Export Plug-In . SVG Version: 6.00 Build 0)  -->
<!DOCTYPE svg PUBLIC "-//W3C//DTD SVG 1.1//EN" "http://www.w3.org/Graphics/SVG/1.1/DTD/svg11.dtd">
<svg version="1.1" id="Livello_1" xmlns="http://www.w3.org/2000/svg" xmlns:xlink="http://www.w3.org/1999/xlink" x="0px" y="0px"
	 width="247px" height="166px" viewBox="0 0 247 166" enable-background="new 0 0 247 166" xml:space="preserve">
<g>
	<linearGradient id="SVGID_1_" gradientUnits="userSpaceOnUse" x1="185.2969" y1="62.2837" x2="185.2969" y2="29.9854">
		<stop  offset="0" style="stop-color:#00C9F7"/>
		<stop  offset="1" style="stop-color:#0090DD"/>
	</linearGradient>
	<path fill-rule="evenodd" clip-rule="evenodd" fill="url(#SVGID_1_)" d="M185.139,44.232c3.936,0,7.126-3.189,7.126-7.107
		c0-3.935-3.19-7.14-7.126-7.14c-3.92,0-7.109,3.205-7.109,7.14C178.029,41.043,181.219,44.232,185.139,44.232z M190.09,46.39
		l-4.84,7.489l-4.586-7.647c-4.476,1.777-8.047,6.314-7.967,13.612c8.919,3.363,17.282,3.142,25.201,0
		C197.835,52.768,194.407,48.294,190.09,46.39z"/>
	<g>
		<linearGradient id="SVGID_2_" gradientUnits="userSpaceOnUse" x1="218.3867" y1="61.6846" x2="218.3867" y2="29.8584">
			<stop  offset="0" style="stop-color:#00C9F7"/>
			<stop  offset="1" style="stop-color:#0090DD"/>
		</linearGradient>
		<path fill="url(#SVGID_2_)" d="M224.021,61.685h-3.015V37.966h-8.253v-2.174c5.491-0.19,7.681-0.285,8.95-5.934h2.317V61.685z"/>
	</g>
</g>
</svg>
