<?xml version="1.0" encoding="utf-8"?>
<!-- Generator: Adobe Illustrator 16.0.3, SVG Export Plug-In . SVG Version: 6.00 Build 0)  -->
<!DOCTYPE svg PUBLIC "-//W3C//DTD SVG 1.1//EN" "http://www.w3.org/Graphics/SVG/1.1/DTD/svg11.dtd">
<svg version="1.1" id="Livello_1" xmlns="http://www.w3.org/2000/svg" xmlns:xlink="http://www.w3.org/1999/xlink" x="0px" y="0px"
	 width="247px" height="166px" viewBox="0 0 247 166" enable-background="new 0 0 247 166" xml:space="preserve">
<linearGradient id="SVGID_1_" gradientUnits="userSpaceOnUse" x1="185.2969" y1="62.3066" x2="185.2969" y2="30.0176">
	<stop  offset="0" style="stop-color:#00C9F7"/>
	<stop  offset="1" style="stop-color:#0090DD"/>
</linearGradient>
<path fill-rule="evenodd" clip-rule="evenodd" fill="url(#SVGID_1_)" d="M185.139,44.249c3.936,0,7.126-3.173,7.126-7.107
	s-3.19-7.124-7.126-7.124c-3.92,0-7.109,3.189-7.109,7.124S181.219,44.249,185.139,44.249z M190.09,46.423l-4.84,7.473l-4.586-7.647
	c-4.476,1.777-8.047,6.314-7.967,13.612c8.919,3.38,17.282,3.142,25.201,0C197.835,52.784,194.407,48.311,190.09,46.423z"/>
<linearGradient id="SVGID_2_" gradientUnits="userSpaceOnUse" x1="220.8301" y1="62.2725" x2="220.8301" y2="29.3672">
	<stop  offset="0" style="stop-color:#00C9F7"/>
	<stop  offset="1" style="stop-color:#0090DD"/>
</linearGradient>
<path fill="url(#SVGID_2_)" d="M213.53,53.959c0.54,3.617,3.237,5.838,6.936,5.838c6.38,0,7.982-6.505,8.348-11.613
	c0.095-1.063,0.095-1.206,0.095-2.38v-0.872c-1.555,3.791-4.522,5.886-8.76,5.886c-5.983,0-10.221-4.379-10.221-10.535
	c0-6.346,4.46-10.915,10.617-10.915c3.841,0,6.855,1.618,8.809,4.569c1.697,2.602,2.38,5.839,2.38,11.09
	c0,3.157-0.317,6.108-0.921,8.346c-1.539,5.695-5.284,8.9-10.395,8.9c-5.38,0-9.221-3.237-9.681-8.313H213.53z M212.848,40.155
	c0,4.776,3.143,8.107,7.666,8.107c4.555,0,7.744-3.331,7.744-8.075c0-4.791-3.285-8.298-7.792-8.298
	C216.086,31.89,212.848,35.396,212.848,40.155z"/>
</svg>
