<?xml version="1.0" encoding="utf-8"?>
<!-- Generator: Adobe Illustrator 16.0.3, SVG Export Plug-In . SVG Version: 6.00 Build 0)  -->
<!DOCTYPE svg PUBLIC "-//W3C//DTD SVG 1.1//EN" "http://www.w3.org/Graphics/SVG/1.1/DTD/svg11.dtd">
<svg version="1.1" id="Livello_1" xmlns="http://www.w3.org/2000/svg" xmlns:xlink="http://www.w3.org/1999/xlink" x="0px" y="0px"
	 width="247px" height="166px" viewBox="0 0 247 166" enable-background="new 0 0 247 166" xml:space="preserve">
<g>
	<linearGradient id="SVGID_1_" gradientUnits="userSpaceOnUse" x1="199.4541" y1="61.4473" x2="199.4541" y2="29.6211">
		<stop  offset="0" style="stop-color:#00C9F7"/>
		<stop  offset="1" style="stop-color:#0090DD"/>
	</linearGradient>
	<path fill="url(#SVGID_1_)" d="M205.088,61.447h-3.016V37.744h-8.252v-2.189c5.475-0.19,7.665-0.285,8.935-5.934h2.333V61.447z"/>
	<linearGradient id="SVGID_2_" gradientUnits="userSpaceOnUse" x1="223.0283" y1="62.1768" x2="223.0283" y2="29.3037">
		<stop  offset="0" style="stop-color:#00C9F7"/>
		<stop  offset="1" style="stop-color:#0090DD"/>
	</linearGradient>
	<path fill="url(#SVGID_2_)" d="M230.305,37.649c-0.539-3.555-2.92-5.871-6.697-5.871c-7.681,0-8.537,8.821-8.76,14.533
		c1.682-3.554,4.872-5.553,8.887-5.553c5.936,0,10.221,4.379,10.221,10.471c0,6.347-4.475,10.947-10.681,10.947
		c-3.824,0-7.062-1.776-8.982-4.854c-1.92-3.109-2.19-7.267-2.19-10.82c0-11.074,4.111-17.198,11.586-17.198
		c5.38,0,8.808,3.015,9.49,8.346H230.305z M215.482,51.293c0,4.823,3.27,8.377,7.792,8.377c4.476,0,7.713-3.458,7.713-8.25
		c0-4.887-3.19-8.25-7.792-8.25C218.72,43.17,215.482,46.629,215.482,51.293z"/>
</g>
<linearGradient id="SVGID_3_" gradientUnits="userSpaceOnUse" x1="176.8379" y1="62.186" x2="176.8379" y2="29.9063">
	<stop  offset="0" style="stop-color:#00C9F7"/>
	<stop  offset="1" style="stop-color:#0090DD"/>
</linearGradient>
<path fill-rule="evenodd" clip-rule="evenodd" fill="url(#SVGID_3_)" d="M176.696,44.122c3.936,0,7.11-3.173,7.11-7.107
	s-3.175-7.108-7.11-7.108s-7.126,3.174-7.126,7.108S172.761,44.122,176.696,44.122z M181.616,46.312l-4.825,7.457l-4.602-7.647
	c-4.476,1.777-8.03,6.314-7.967,13.612c8.919,3.396,17.299,3.142,25.232,0C189.377,52.657,185.933,48.184,181.616,46.312z"/>
</svg>
