<?xml version="1.0" encoding="utf-8"?>
<!-- Generator: Adobe Illustrator 16.0.3, SVG Export Plug-In . SVG Version: 6.00 Build 0)  -->
<!DOCTYPE svg PUBLIC "-//W3C//DTD SVG 1.1//EN" "http://www.w3.org/Graphics/SVG/1.1/DTD/svg11.dtd">
<svg version="1.1" id="Livello_1" xmlns="http://www.w3.org/2000/svg" xmlns:xlink="http://www.w3.org/1999/xlink" x="0px" y="0px"
	 width="247px" height="166px" viewBox="0 0 247 166" enable-background="new 0 0 247 166" xml:space="preserve">
<g>
	<linearGradient id="SVGID_1_" gradientUnits="userSpaceOnUse" x1="185.2969" y1="62.2959" x2="185.2969" y2="30.001">
		<stop  offset="0" style="stop-color:#00C9F7"/>
		<stop  offset="1" style="stop-color:#0090DD"/>
	</linearGradient>
	<path fill-rule="evenodd" clip-rule="evenodd" fill="url(#SVGID_1_)" d="M185.139,44.248c3.936,0,7.126-3.205,7.126-7.123
		c0-3.935-3.19-7.124-7.126-7.124c-3.92,0-7.109,3.189-7.109,7.124C178.029,41.043,181.219,44.248,185.139,44.248z M190.09,46.406
		l-4.84,7.488l-4.586-7.647c-4.476,1.777-8.047,6.314-7.967,13.597c8.919,3.38,17.282,3.157,25.201,0
		C197.835,52.768,194.407,48.294,190.09,46.406z"/>
	<g>
		<linearGradient id="SVGID_2_" gradientUnits="userSpaceOnUse" x1="220.4258" y1="61.7002" x2="220.4258" y2="29.5889">
			<stop  offset="0" style="stop-color:#00C9F7"/>
			<stop  offset="1" style="stop-color:#0090DD"/>
		</linearGradient>
		<path fill="url(#SVGID_2_)" d="M230.939,61.7h-21.027c0.412-6.934,4.84-9.678,10.046-13.089c3.587-2.364,7.935-5.062,7.935-9.947
			c0-3.967-2.824-6.568-7.078-6.568c-5.522,0-7.3,4.014-7.3,8.758h-2.825V40.44c0-6.743,3.873-10.852,10.252-10.852
			c5.999,0,9.871,3.554,9.871,9.027c0,6.346-5.649,9.757-10.363,12.771c-3.063,1.968-6.648,4.109-7.3,7.806
			c0.333,0,0.587-0.048,0.778-0.048h17.012V61.7z"/>
	</g>
</g>
</svg>
