<?xml version="1.0" encoding="utf-8"?>
<!-- Generator: Adobe Illustrator 16.0.3, SVG Export Plug-In . SVG Version: 6.00 Build 0)  -->
<!DOCTYPE svg PUBLIC "-//W3C//DTD SVG 1.1//EN" "http://www.w3.org/Graphics/SVG/1.1/DTD/svg11.dtd">
<svg version="1.1" id="Livello_1" xmlns="http://www.w3.org/2000/svg" xmlns:xlink="http://www.w3.org/1999/xlink" x="0px" y="0px"
	 width="247px" height="166px" viewBox="0 0 247 166" enable-background="new 0 0 247 166" xml:space="preserve">
<linearGradient id="SVGID_1_" gradientUnits="userSpaceOnUse" x1="185.2969" y1="62.3125" x2="185.2969" y2="30.0176">
	<stop  offset="0" style="stop-color:#00C9F7"/>
	<stop  offset="1" style="stop-color:#0090DD"/>
</linearGradient>
<path fill-rule="evenodd" clip-rule="evenodd" fill="url(#SVGID_1_)" d="M185.139,44.265c3.936,0,7.126-3.205,7.126-7.123
	c0-3.935-3.19-7.124-7.126-7.124c-3.92,0-7.109,3.189-7.109,7.124C178.029,41.06,181.219,44.265,185.139,44.265z M190.09,46.423
	l-4.84,7.488l-4.586-7.647c-4.476,1.777-8.047,6.314-7.967,13.597c8.919,3.38,17.282,3.157,25.201,0
	C197.835,52.784,194.407,48.311,190.09,46.423z"/>
<g>
	<linearGradient id="SVGID_2_" gradientUnits="userSpaceOnUse" x1="220.4336" y1="61.7168" x2="220.4336" y2="29.7959">
		<stop  offset="0" style="stop-color:#00C9F7"/>
		<stop  offset="1" style="stop-color:#0090DD"/>
	</linearGradient>
	<path fill="url(#SVGID_2_)" d="M231.543,53.784h-4.84v7.933h-2.65v-7.933h-14.729v-2.697l14.95-21.291h2.429v21.608h4.84V53.784z
		 M224.053,38.823c0-2.428,0-3.063,0.063-5.252c-3.936,6.124-8.125,11.994-12.473,17.833h12.41V38.823z"/>
</g>
</svg>
