<?xml version="1.0" encoding="utf-8"?>
<!-- Generator: Adobe Illustrator 16.0.3, SVG Export Plug-In . SVG Version: 6.00 Build 0)  -->
<!DOCTYPE svg PUBLIC "-//W3C//DTD SVG 1.1//EN" "http://www.w3.org/Graphics/SVG/1.1/DTD/svg11.dtd">
<svg version="1.1" id="Livello_1" xmlns="http://www.w3.org/2000/svg" xmlns:xlink="http://www.w3.org/1999/xlink" x="0px" y="0px"
	 width="247px" height="166px" viewBox="0 0 247 166" enable-background="new 0 0 247 166" xml:space="preserve">
<linearGradient id="SVGID_1_" gradientUnits="userSpaceOnUse" x1="176.8379" y1="62.1914" x2="176.8379" y2="29.9063">
	<stop  offset="0" style="stop-color:#00C9F7"/>
	<stop  offset="1" style="stop-color:#0090DD"/>
</linearGradient>
<path fill-rule="evenodd" clip-rule="evenodd" fill="url(#SVGID_1_)" d="M176.696,44.138c3.936,0,7.11-3.188,7.11-7.123
	s-3.175-7.108-7.11-7.108s-7.126,3.174-7.126,7.108S172.761,44.138,176.696,44.138z M181.616,46.312l-4.825,7.473l-4.602-7.647
	c-4.476,1.777-8.03,6.314-7.967,13.597c8.919,3.396,17.299,3.157,25.232,0C189.377,52.657,185.933,48.184,181.616,46.312z"/>
<linearGradient id="SVGID_2_" gradientUnits="userSpaceOnUse" x1="199.9775" y1="61.4629" x2="199.9775" y2="29.6211">
	<stop  offset="0" style="stop-color:#00C9F7"/>
	<stop  offset="1" style="stop-color:#0090DD"/>
</linearGradient>
<path fill="url(#SVGID_2_)" d="M205.611,61.463h-3.016V37.744h-8.252v-2.189c5.475-0.19,7.665-0.27,8.935-5.934h2.333V61.463z"/>
<linearGradient id="SVGID_3_" gradientUnits="userSpaceOnUse" x1="222.918" y1="61.4629" x2="222.918" y2="29.3516">
	<stop  offset="0" style="stop-color:#00C9F7"/>
	<stop  offset="1" style="stop-color:#0090DD"/>
</linearGradient>
<path fill="url(#SVGID_3_)" d="M233.432,61.463h-21.027c0.412-6.934,4.824-9.662,10.029-13.089c3.603-2.38,7.936-5.062,7.936-9.947
	c0-3.967-2.826-6.568-7.078-6.568c-5.508,0-7.301,4.014-7.301,8.758h-2.824v-0.413c0-6.742,3.888-10.852,10.268-10.852
	c5.982,0,9.855,3.554,9.855,9.027c0,6.346-5.65,9.773-10.348,12.771c-3.063,1.968-6.666,4.109-7.301,7.806
	c0.318,0,0.588-0.048,0.762-0.048h17.029V61.463z"/>
</svg>
