<?xml version="1.0" encoding="utf-8"?>
<!-- Generator: Adobe Illustrator 16.0.3, SVG Export Plug-In . SVG Version: 6.00 Build 0)  -->
<!DOCTYPE svg PUBLIC "-//W3C//DTD SVG 1.1//EN" "http://www.w3.org/Graphics/SVG/1.1/DTD/svg11.dtd">
<svg version="1.1" id="Livello_1" xmlns="http://www.w3.org/2000/svg" xmlns:xlink="http://www.w3.org/1999/xlink" x="0px" y="0px"
	 width="247px" height="166px" viewBox="0 0 247 166" enable-background="new 0 0 247 166" xml:space="preserve">
<g>
	<linearGradient id="SVGID_1_" gradientUnits="userSpaceOnUse" x1="220.4336" y1="62.3994" x2="220.4336" y2="30.1924">
		<stop  offset="0" style="stop-color:#00C9F7"/>
		<stop  offset="1" style="stop-color:#0090DD"/>
	</linearGradient>
	<path fill="url(#SVGID_1_)" d="M229.623,32.746H215.8l-2.285,11.027c1.777-2.27,4.38-3.174,7.253-3.174
		c6.078,0,10.458,4.458,10.458,10.71c0,6.298-4.571,11.09-11.014,11.09c-6.284,0-10.442-3.84-10.569-9.806h2.824
		c0.223,4.411,3.143,7.394,7.745,7.394c4.665,0,8.093-3.617,8.093-8.504c0-4.966-3.396-8.44-8.125-8.44
		c-3.11,0-5.396,1.206-7.078,3.713l-2.555-0.096l3.158-16.468h15.918V32.746z"/>
</g>
<linearGradient id="SVGID_2_" gradientUnits="userSpaceOnUse" x1="185.2969" y1="62.3003" x2="185.2969" y2="30.002">
	<stop  offset="0" style="stop-color:#00C9F7"/>
	<stop  offset="1" style="stop-color:#0090DD"/>
</linearGradient>
<path fill-rule="evenodd" clip-rule="evenodd" fill="url(#SVGID_2_)" d="M185.139,44.249c3.936,0,7.126-3.189,7.126-7.107
	c0-3.935-3.19-7.14-7.126-7.14c-3.92,0-7.109,3.205-7.109,7.14C178.029,41.06,181.219,44.249,185.139,44.249z M190.09,46.406
	l-4.84,7.489l-4.586-7.647c-4.476,1.777-8.047,6.314-7.967,13.612c8.919,3.363,17.282,3.142,25.201,0
	C197.835,52.784,194.407,48.311,190.09,46.406z"/>
</svg>
