<?xml version="1.0" encoding="utf-8"?>
<!-- Generator: Adobe Illustrator 16.0.3, SVG Export Plug-In . SVG Version: 6.00 Build 0)  -->
<!DOCTYPE svg PUBLIC "-//W3C//DTD SVG 1.1//EN" "http://www.w3.org/Graphics/SVG/1.1/DTD/svg11.dtd">
<svg version="1.1" id="Livello_1" xmlns="http://www.w3.org/2000/svg" xmlns:xlink="http://www.w3.org/1999/xlink" x="0px" y="0px"
	 width="247px" height="166px" viewBox="0 0 247 166" enable-background="new 0 0 247 166" xml:space="preserve">
<g>
	
		<linearGradient id="SVGID_1_" gradientUnits="userSpaceOnUse" x1="185.3184" y1="102.8096" x2="185.3184" y2="135.1094" gradientTransform="matrix(1 0 0 -1 -0.02 165.0947)">
		<stop  offset="0" style="stop-color:#ED1C24"/>
		<stop  offset="1" style="stop-color:#A71C20"/>
	</linearGradient>
	<path fill="url(#SVGID_1_)" d="M185.139,44.232c3.937,0,7.127-3.189,7.127-7.107c0-3.935-3.19-7.14-7.127-7.14
		c-3.92,0-7.109,3.205-7.109,7.14C178.029,41.043,181.219,44.232,185.139,44.232z M190.09,46.39l-4.84,7.489l-4.586-7.647
		c-4.477,1.777-8.047,6.314-7.967,13.612c8.919,3.363,17.281,3.142,25.201,0C197.835,52.768,194.407,48.294,190.09,46.39z"/>
	<g>
		
			<linearGradient id="SVGID_2_" gradientUnits="userSpaceOnUse" x1="218.4082" y1="103.4092" x2="218.4082" y2="135.2363" gradientTransform="matrix(1 0 0 -1 -0.02 165.0947)">
			<stop  offset="0" style="stop-color:#ED1C24"/>
			<stop  offset="1" style="stop-color:#A71C20"/>
		</linearGradient>
		<path fill="url(#SVGID_2_)" d="M224.021,61.685h-3.016V37.966h-8.253v-2.174c5.491-0.19,7.681-0.285,8.95-5.934h2.316v31.827
			H224.021z"/>
	</g>
</g>
</svg>
