<?xml version="1.0" encoding="utf-8"?>
<!-- Generator: Adobe Illustrator 16.0.3, SVG Export Plug-In . SVG Version: 6.00 Build 0)  -->
<!DOCTYPE svg PUBLIC "-//W3C//DTD SVG 1.1//EN" "http://www.w3.org/Graphics/SVG/1.1/DTD/svg11.dtd">
<svg version="1.1" id="Livello_1" xmlns="http://www.w3.org/2000/svg" xmlns:xlink="http://www.w3.org/1999/xlink" x="0px" y="0px"
	 width="247px" height="166px" viewBox="0 0 247 166" enable-background="new 0 0 247 166" xml:space="preserve">
<g>
	
		<linearGradient id="SVGID_1_" gradientUnits="userSpaceOnUse" x1="185.3184" y1="102.7871" x2="185.3184" y2="135.0762" gradientTransform="matrix(1 0 0 -1 -0.02 165.0947)">
		<stop  offset="0" style="stop-color:#ED1C24"/>
		<stop  offset="1" style="stop-color:#A71C20"/>
	</linearGradient>
	<path fill="url(#SVGID_1_)" d="M185.139,44.249c3.937,0,7.127-3.173,7.127-7.107s-3.19-7.124-7.127-7.124
		c-3.92,0-7.109,3.189-7.109,7.124S181.219,44.249,185.139,44.249z M190.09,46.423l-4.84,7.473l-4.586-7.647
		c-4.477,1.777-8.047,6.314-7.967,13.612c8.919,3.38,17.281,3.142,25.201,0C197.835,52.784,194.407,48.311,190.09,46.423z"/>
	<g>
		
			<linearGradient id="SVGID_2_" gradientUnits="userSpaceOnUse" x1="220.4463" y1="102.6494" x2="220.4463" y2="135.4424" gradientTransform="matrix(1 0 0 -1 -0.02 165.0947)">
			<stop  offset="0" style="stop-color:#ED1C24"/>
			<stop  offset="1" style="stop-color:#A71C20"/>
		</linearGradient>
		<path fill="url(#SVGID_2_)" d="M220.625,29.652c5.744,0,9.585,3.284,9.585,8.155c0,3.475-2.048,6.124-5.38,6.949
			c4.205,0.856,6.521,3.648,6.521,7.79c0,5.886-4.428,9.899-10.998,9.899c-6.617,0-10.854-3.966-10.854-10.169v-0.73h2.777v0.127
			c0,5.172,3.063,8.266,8.172,8.266c4.65,0,7.982-2.919,7.982-7.075c0-5.156-4.015-6.712-8.396-6.712c-0.587,0-0.873,0-1.556,0.063
			v-2.427h1.189c1.777,0,2.65-0.079,3.842-0.492c2.411-0.92,3.775-2.84,3.775-5.347c0-3.554-2.635-5.886-6.791-5.886
			c-4.666,0-7.35,2.888-7.523,7.996h-2.697C210.373,33.492,214.197,29.652,220.625,29.652z"/>
	</g>
</g>
</svg>
