<?xml version="1.0" encoding="utf-8"?>
<!-- Generator: Adobe Illustrator 16.0.3, SVG Export Plug-In . SVG Version: 6.00 Build 0)  -->
<!DOCTYPE svg PUBLIC "-//W3C//DTD SVG 1.1//EN" "http://www.w3.org/Graphics/SVG/1.1/DTD/svg11.dtd">
<svg version="1.1" id="Livello_1" xmlns="http://www.w3.org/2000/svg" xmlns:xlink="http://www.w3.org/1999/xlink" x="0px" y="0px"
	 width="247px" height="166px" viewBox="0 0 247 166" enable-background="new 0 0 247 166" xml:space="preserve">
<g>
	
		<linearGradient id="SVGID_1_" gradientUnits="userSpaceOnUse" x1="199.4746" y1="103.6465" x2="199.4746" y2="135.4727" gradientTransform="matrix(1 0 0 -1 -0.02 165.0947)">
		<stop  offset="0" style="stop-color:#ED1C24"/>
		<stop  offset="1" style="stop-color:#A71C20"/>
	</linearGradient>
	<path fill="url(#SVGID_1_)" d="M205.088,61.447h-3.016V37.744h-8.252v-2.189c5.475-0.19,7.664-0.285,8.935-5.934h2.333V61.447
		L205.088,61.447z"/>
	
		<linearGradient id="SVGID_2_" gradientUnits="userSpaceOnUse" x1="223.0508" y1="102.918" x2="223.0508" y2="135.79" gradientTransform="matrix(1 0 0 -1 -0.02 165.0947)">
		<stop  offset="0" style="stop-color:#ED1C24"/>
		<stop  offset="1" style="stop-color:#A71C20"/>
	</linearGradient>
	<path fill="url(#SVGID_2_)" d="M230.305,37.649c-0.539-3.555-2.92-5.871-6.697-5.871c-7.681,0-8.537,8.821-8.76,14.533
		c1.682-3.554,4.873-5.553,8.887-5.553c5.937,0,10.222,4.379,10.222,10.471c0,6.347-4.476,10.947-10.681,10.947
		c-3.824,0-7.063-1.776-8.982-4.854c-1.92-3.109-2.189-7.267-2.189-10.82c0-11.074,4.11-17.198,11.586-17.198
		c5.379,0,8.808,3.015,9.49,8.346L230.305,37.649L230.305,37.649z M215.482,51.293c0,4.823,3.27,8.377,7.791,8.377
		c4.477,0,7.713-3.458,7.713-8.25c0-4.887-3.189-8.25-7.791-8.25C218.721,43.17,215.482,46.629,215.482,51.293z"/>
</g>
<linearGradient id="SVGID_3_" gradientUnits="userSpaceOnUse" x1="176.8584" y1="102.9082" x2="176.8584" y2="135.1875" gradientTransform="matrix(1 0 0 -1 -0.02 165.0947)">
	<stop  offset="0" style="stop-color:#ED1C24"/>
	<stop  offset="1" style="stop-color:#A71C20"/>
</linearGradient>
<path fill="url(#SVGID_3_)" d="M176.695,44.122c3.937,0,7.111-3.173,7.111-7.107s-3.176-7.108-7.111-7.108
	c-3.934,0-7.125,3.174-7.125,7.108S172.762,44.122,176.695,44.122z M181.616,46.312l-4.825,7.457l-4.602-7.647
	c-4.477,1.777-8.03,6.314-7.967,13.612c8.918,3.396,17.299,3.142,25.231,0C189.377,52.657,185.934,48.184,181.616,46.312z"/>
</svg>
