<?xml version="1.0" encoding="utf-8"?>
<!-- Generator: Adobe Illustrator 16.0.3, SVG Export Plug-In . SVG Version: 6.00 Build 0)  -->
<!DOCTYPE svg PUBLIC "-//W3C//DTD SVG 1.1//EN" "http://www.w3.org/Graphics/SVG/1.1/DTD/svg11.dtd">
<svg version="1.1" id="Livello_1" xmlns="http://www.w3.org/2000/svg" xmlns:xlink="http://www.w3.org/1999/xlink" x="0px" y="0px"
	 width="247px" height="166px" viewBox="0 0 247 166" enable-background="new 0 0 247 166" xml:space="preserve">
<linearGradient id="SVGID_1_" gradientUnits="userSpaceOnUse" x1="185.3184" y1="102.7871" x2="185.3184" y2="135.0762" gradientTransform="matrix(1 0 0 -1 -0.02 165.0947)">
	<stop  offset="0" style="stop-color:#ED1C24"/>
	<stop  offset="1" style="stop-color:#A71C20"/>
</linearGradient>
<path fill="url(#SVGID_1_)" d="M185.139,44.249c3.937,0,7.127-3.173,7.127-7.107s-3.19-7.124-7.127-7.124
	c-3.92,0-7.109,3.189-7.109,7.124S181.219,44.249,185.139,44.249z M190.09,46.423l-4.84,7.473l-4.586-7.647
	c-4.477,1.777-8.047,6.314-7.967,13.612c8.919,3.38,17.281,3.142,25.201,0C197.835,52.784,194.407,48.311,190.09,46.423z"/>
<linearGradient id="SVGID_2_" gradientUnits="userSpaceOnUse" x1="220.8516" y1="102.8213" x2="220.8516" y2="135.7266" gradientTransform="matrix(1 0 0 -1 -0.02 165.0947)">
	<stop  offset="0" style="stop-color:#ED1C24"/>
	<stop  offset="1" style="stop-color:#A71C20"/>
</linearGradient>
<path fill="url(#SVGID_2_)" d="M213.529,53.959c0.541,3.617,3.238,5.838,6.937,5.838c6.38,0,7.981-6.505,8.349-11.613
	c0.095-1.063,0.095-1.206,0.095-2.38v-0.872c-1.556,3.791-4.522,5.886-8.761,5.886c-5.982,0-10.221-4.379-10.221-10.535
	c0-6.346,4.461-10.915,10.617-10.915c3.842,0,6.855,1.618,8.809,4.569c1.697,2.602,2.381,5.839,2.381,11.09
	c0,3.157-0.317,6.108-0.922,8.346c-1.539,5.695-5.283,8.9-10.395,8.9c-5.38,0-9.221-3.237-9.682-8.313L213.529,53.959
	L213.529,53.959z M212.848,40.155c0,4.776,3.144,8.107,7.666,8.107c4.555,0,7.744-3.331,7.744-8.075
	c0-4.791-3.285-8.298-7.792-8.298C216.086,31.89,212.848,35.396,212.848,40.155z"/>
</svg>
