<?xml version="1.0" encoding="utf-8"?>
<!-- Generator: Adobe Illustrator 16.0.3, SVG Export Plug-In . SVG Version: 6.00 Build 0)  -->
<!DOCTYPE svg PUBLIC "-//W3C//DTD SVG 1.1//EN" "http://www.w3.org/Graphics/SVG/1.1/DTD/svg11.dtd">
<svg version="1.1" id="Livello_1" xmlns="http://www.w3.org/2000/svg" xmlns:xlink="http://www.w3.org/1999/xlink" x="0px" y="0px"
	 width="247px" height="166px" viewBox="0 0 247 166" enable-background="new 0 0 247 166" xml:space="preserve">
<linearGradient id="SVGID_1_" gradientUnits="userSpaceOnUse" x1="176.8584" y1="102.8926" x2="176.8584" y2="135.1875" gradientTransform="matrix(1 0 0 -1 -0.02 165.0947)">
	<stop  offset="0" style="stop-color:#ED1C24"/>
	<stop  offset="1" style="stop-color:#A71C20"/>
</linearGradient>
<path fill="url(#SVGID_1_)" d="M176.695,44.153c3.937,0,7.111-3.204,7.111-7.123c0-3.936-3.176-7.124-7.111-7.124
	c-3.934,0-7.125,3.188-7.125,7.124C169.57,40.949,172.762,44.153,176.695,44.153z M181.616,46.312l-4.825,7.488l-4.602-7.647
	c-4.477,1.777-8.03,6.314-7.967,13.597c8.918,3.38,17.299,3.157,25.231,0C189.377,52.674,185.934,48.199,181.616,46.312z"/>
<linearGradient id="SVGID_2_" gradientUnits="userSpaceOnUse" x1="199.6484" y1="103.6152" x2="199.6484" y2="135.4727" gradientTransform="matrix(1 0 0 -1 -0.02 165.0947)">
	<stop  offset="0" style="stop-color:#ED1C24"/>
	<stop  offset="1" style="stop-color:#A71C20"/>
</linearGradient>
<path fill="url(#SVGID_2_)" d="M205.262,61.479h-3.015V37.744h-8.253v-2.189c5.49-0.175,7.682-0.254,8.951-5.934h2.316V61.479
	L205.262,61.479z"/>
<linearGradient id="SVGID_3_" gradientUnits="userSpaceOnUse" x1="222.8682" y1="102.8848" x2="222.8682" y2="135.6963" gradientTransform="matrix(1 0 0 -1 -0.02 165.0947)">
	<stop  offset="0" style="stop-color:#ED1C24"/>
	<stop  offset="1" style="stop-color:#A71C20"/>
</linearGradient>
<path fill="url(#SVGID_3_)" d="M223.053,29.398c5.744,0,9.569,3.301,9.569,8.171c0,3.475-2.031,6.108-5.364,6.934
	c4.189,0.856,6.508,3.649,6.508,7.806c0,5.87-4.412,9.9-10.981,9.9c-6.636,0-10.854-3.967-10.854-10.186v-0.73h2.762v0.143
	c0,5.156,3.078,8.267,8.188,8.267c4.635,0,7.967-2.92,7.967-7.076c0-5.156-3.998-6.711-8.38-6.711c-0.603,0-0.873,0-1.555,0.048
	v-2.412h1.174c1.776,0,2.666-0.095,3.841-0.508c2.412-0.92,3.777-2.824,3.777-5.33c0-3.555-2.635-5.902-6.792-5.902
	c-4.649,0-7.332,2.888-7.522,7.996h-2.697C212.785,33.238,216.625,29.398,223.053,29.398z"/>
</svg>
