<?xml version="1.0" encoding="utf-8"?>
<!-- Generator: Adobe Illustrator 16.0.3, SVG Export Plug-In . SVG Version: 6.00 Build 0)  -->
<!DOCTYPE svg PUBLIC "-//W3C//DTD SVG 1.1//EN" "http://www.w3.org/Graphics/SVG/1.1/DTD/svg11.dtd">
<svg version="1.1" id="Livello_1" xmlns="http://www.w3.org/2000/svg" xmlns:xlink="http://www.w3.org/1999/xlink" x="0px" y="0px"
	 width="247px" height="166px" viewBox="0 0 247 166" enable-background="new 0 0 247 166" xml:space="preserve">
<linearGradient id="SVGID_1_" gradientUnits="userSpaceOnUse" x1="176.8584" y1="102.9004" x2="176.8584" y2="135.1875" gradientTransform="matrix(1 0 0 -1 -0.02 165.0947)">
	<stop  offset="0" style="stop-color:#ED1C24"/>
	<stop  offset="1" style="stop-color:#A71C20"/>
</linearGradient>
<path fill="url(#SVGID_1_)" d="M176.695,44.138c3.937,0,7.111-3.188,7.111-7.123s-3.176-7.108-7.111-7.108
	c-3.934,0-7.125,3.174-7.125,7.108S172.762,44.138,176.695,44.138z M181.616,46.312l-4.825,7.473l-4.602-7.647
	c-4.477,1.777-8.03,6.314-7.967,13.597c8.918,3.396,17.299,3.157,25.231,0C189.377,52.657,185.934,48.184,181.616,46.312z"/>
<linearGradient id="SVGID_2_" gradientUnits="userSpaceOnUse" x1="199.5527" y1="103.6309" x2="199.5527" y2="135.4727" gradientTransform="matrix(1 0 0 -1 -0.02 165.0947)">
	<stop  offset="0" style="stop-color:#ED1C24"/>
	<stop  offset="1" style="stop-color:#A71C20"/>
</linearGradient>
<path fill="url(#SVGID_2_)" d="M205.167,61.463h-3.015V37.744h-8.254v-2.189c5.459-0.19,7.649-0.27,8.92-5.934h2.349V61.463z"/>
<linearGradient id="SVGID_3_" gradientUnits="userSpaceOnUse" x1="222.8037" y1="103.6309" x2="222.8037" y2="135.5693" gradientTransform="matrix(1 0 0 -1 -0.02 165.0947)">
	<stop  offset="0" style="stop-color:#ED1C24"/>
	<stop  offset="1" style="stop-color:#A71C20"/>
</linearGradient>
<path fill="url(#SVGID_3_)" d="M233.893,53.53h-4.842v7.933h-2.65V53.53h-14.727v-2.697l14.949-21.308h2.428V51.15h4.842V53.53z
	 M226.4,38.569c0-2.412,0-3.063,0.063-5.252c-3.937,6.108-8.126,11.994-12.476,17.833h12.41V38.569H226.4z"/>
</svg>
