<?xml version="1.0" encoding="utf-8"?>
<!-- Generator: Adobe Illustrator 16.0.3, SVG Export Plug-In . SVG Version: 6.00 Build 0)  -->
<!DOCTYPE svg PUBLIC "-//W3C//DTD SVG 1.1//EN" "http://www.w3.org/Graphics/SVG/1.1/DTD/svg11.dtd">
<svg version="1.1" id="Livello_1" xmlns="http://www.w3.org/2000/svg" xmlns:xlink="http://www.w3.org/1999/xlink" x="0px" y="0px"
	 width="247px" height="166px" viewBox="0 0 247 166" enable-background="new 0 0 247 166" xml:space="preserve">
<g>
	
		<linearGradient id="SVGID_1_" gradientUnits="userSpaceOnUse" x1="185.3184" y1="102.7979" x2="185.3184" y2="135.0938" gradientTransform="matrix(1 0 0 -1 -0.02 165.0947)">
		<stop  offset="0" style="stop-color:#ED1C24"/>
		<stop  offset="1" style="stop-color:#A71C20"/>
	</linearGradient>
	<path fill="url(#SVGID_1_)" d="M185.139,44.248c3.937,0,7.127-3.205,7.127-7.123c0-3.935-3.19-7.124-7.127-7.124
		c-3.92,0-7.109,3.189-7.109,7.124C178.029,41.043,181.219,44.248,185.139,44.248z M190.09,46.406l-4.84,7.488l-4.586-7.647
		c-4.477,1.777-8.047,6.314-7.967,13.597c8.919,3.38,17.281,3.157,25.201,0C197.835,52.768,194.407,48.294,190.09,46.406z"/>
	<g>
		
			<linearGradient id="SVGID_2_" gradientUnits="userSpaceOnUse" x1="220.4463" y1="103.3945" x2="220.4463" y2="135.5059" gradientTransform="matrix(1 0 0 -1 -0.02 165.0947)">
			<stop  offset="0" style="stop-color:#ED1C24"/>
			<stop  offset="1" style="stop-color:#A71C20"/>
		</linearGradient>
		<path fill="url(#SVGID_2_)" d="M230.939,61.7h-21.027c0.412-6.934,4.84-9.678,10.046-13.089c3.587-2.364,7.935-5.062,7.935-9.947
			c0-3.967-2.824-6.568-7.078-6.568c-5.521,0-7.299,4.014-7.299,8.758h-2.826V40.44c0-6.743,3.873-10.852,10.252-10.852
			c6,0,9.871,3.554,9.871,9.027c0,6.346-5.648,9.757-10.362,12.771c-3.063,1.968-6.648,4.109-7.3,7.806
			c0.332,0,0.586-0.048,0.777-0.048h17.012V61.7L230.939,61.7z"/>
	</g>
</g>
</svg>
