<?xml version="1.0" encoding="utf-8"?>
<!-- Generator: Adobe Illustrator 16.0.3, SVG Export Plug-In . SVG Version: 6.00 Build 0)  -->
<!DOCTYPE svg PUBLIC "-//W3C//DTD SVG 1.1//EN" "http://www.w3.org/Graphics/SVG/1.1/DTD/svg11.dtd">
<svg version="1.1" id="Livello_1" xmlns="http://www.w3.org/2000/svg" xmlns:xlink="http://www.w3.org/1999/xlink" x="0px" y="0px"
	 width="247px" height="166px" viewBox="0 0 247 166" enable-background="new 0 0 247 166" xml:space="preserve">
<linearGradient id="SVGID_1_" gradientUnits="userSpaceOnUse" x1="176.8584" y1="102.8887" x2="176.8584" y2="135.1875" gradientTransform="matrix(1 0 0 -1 -0.02 165.0947)">
	<stop  offset="0" style="stop-color:#ED1C24"/>
	<stop  offset="1" style="stop-color:#A71C20"/>
</linearGradient>
<path fill="url(#SVGID_1_)" d="M176.695,44.153c3.937,0,7.111-3.188,7.111-7.107c0-3.935-3.176-7.14-7.111-7.14
	c-3.934,0-7.125,3.205-7.125,7.14C169.57,40.965,172.762,44.153,176.695,44.153z M181.616,46.312l-4.825,7.488l-4.602-7.647
	c-4.477,1.777-8.03,6.314-7.967,13.613c8.918,3.363,17.299,3.141,25.231,0C189.377,52.689,185.934,48.215,181.616,46.312z"/>
<linearGradient id="SVGID_2_" gradientUnits="userSpaceOnUse" x1="199.7285" y1="103.6152" x2="199.7285" y2="135.459" gradientTransform="matrix(1 0 0 -1 -0.02 165.0947)">
	<stop  offset="0" style="stop-color:#ED1C24"/>
	<stop  offset="1" style="stop-color:#A71C20"/>
</linearGradient>
<path fill="url(#SVGID_2_)" d="M205.342,61.479h-3.016V37.76h-8.252v-2.19c5.475-0.174,7.664-0.27,8.935-5.934h2.333V61.479
	L205.342,61.479z"/>
<linearGradient id="SVGID_3_" gradientUnits="userSpaceOnUse" x1="222.9297" y1="102.9316" x2="222.9297" y2="135.123" gradientTransform="matrix(1 0 0 -1 -0.02 165.0947)">
	<stop  offset="0" style="stop-color:#ED1C24"/>
	<stop  offset="1" style="stop-color:#A71C20"/>
</linearGradient>
<path fill="url(#SVGID_3_)" d="M232.113,32.509h-13.838l-2.271,11.042c1.776-2.284,4.382-3.188,7.253-3.188
	c6.063,0,10.442,4.458,10.442,10.709c0,6.299-4.556,11.09-10.982,11.09c-6.3,0-10.458-3.823-10.601-9.805h2.841
	c0.224,4.426,3.144,7.393,7.76,7.393c4.65,0,8.063-3.601,8.063-8.487c0-4.982-3.365-8.44-8.125-8.44
	c-3.096,0-5.365,1.189-7.063,3.696l-2.555-0.095l3.142-16.453h15.934V32.509L232.113,32.509z"/>
</svg>
