<?xml version="1.0" encoding="utf-8"?>
<!-- Generator: Adobe Illustrator 16.0.3, SVG Export Plug-In . SVG Version: 6.00 Build 0)  -->
<!DOCTYPE svg PUBLIC "-//W3C//DTD SVG 1.1//EN" "http://www.w3.org/Graphics/SVG/1.1/DTD/svg11.dtd">
<svg version="1.1" id="Livello_1" xmlns="http://www.w3.org/2000/svg" xmlns:xlink="http://www.w3.org/1999/xlink" x="0px" y="0px"
	 width="247px" height="166px" viewBox="0 0 247 166" enable-background="new 0 0 247 166" xml:space="preserve">
<linearGradient id="SVGID_1_" gradientUnits="userSpaceOnUse" x1="185.3184" y1="102.7813" x2="185.3184" y2="135.0762" gradientTransform="matrix(1 0 0 -1 -0.02 165.0947)">
	<stop  offset="0" style="stop-color:#ED1C24"/>
	<stop  offset="1" style="stop-color:#A71C20"/>
</linearGradient>
<path fill="url(#SVGID_1_)" d="M185.139,44.265c3.937,0,7.127-3.205,7.127-7.123c0-3.935-3.19-7.124-7.127-7.124
	c-3.92,0-7.109,3.189-7.109,7.124C178.029,41.06,181.219,44.265,185.139,44.265z M190.09,46.423l-4.84,7.488l-4.586-7.647
	c-4.477,1.777-8.047,6.314-7.967,13.597c8.919,3.38,17.281,3.157,25.201,0C197.835,52.784,194.407,48.311,190.09,46.423z"/>
<g>
	
		<linearGradient id="SVGID_2_" gradientUnits="userSpaceOnUse" x1="220.4541" y1="103.377" x2="220.4541" y2="135.2988" gradientTransform="matrix(1 0 0 -1 -0.02 165.0947)">
		<stop  offset="0" style="stop-color:#ED1C24"/>
		<stop  offset="1" style="stop-color:#A71C20"/>
	</linearGradient>
	<path fill="url(#SVGID_2_)" d="M231.543,53.784h-4.84v7.933h-2.65v-7.933h-14.729v-2.697l14.949-21.291h2.43v21.608h4.84V53.784z
		 M224.053,38.823c0-2.428,0-3.063,0.063-5.252c-3.937,6.124-8.125,11.994-12.474,17.833h12.41V38.823L224.053,38.823z"/>
</g>
</svg>
