<?xml version="1.0" encoding="utf-8"?>
<!-- Generator: Adobe Illustrator 16.0.3, SVG Export Plug-In . SVG Version: 6.00 Build 0)  -->
<!DOCTYPE svg PUBLIC "-//W3C//DTD SVG 1.1//EN" "http://www.w3.org/Graphics/SVG/1.1/DTD/svg11.dtd">
<svg version="1.1" id="Livello_1" xmlns="http://www.w3.org/2000/svg" xmlns:xlink="http://www.w3.org/1999/xlink" x="0px" y="0px"
	 width="247px" height="166px" viewBox="0 0 247 166" enable-background="new 0 0 247 166" xml:space="preserve">
<linearGradient id="SVGID_1_" gradientUnits="userSpaceOnUse" x1="185.3184" y1="102.7871" x2="185.3184" y2="135.0762" gradientTransform="matrix(1 0 0 -1 -0.02 165.0947)">
	<stop  offset="0" style="stop-color:#ED1C24"/>
	<stop  offset="1" style="stop-color:#A71C20"/>
</linearGradient>
<path fill="url(#SVGID_1_)" d="M185.139,44.249c3.937,0,7.127-3.173,7.127-7.107s-3.19-7.124-7.127-7.124
	c-3.92,0-7.109,3.189-7.109,7.124S181.219,44.249,185.139,44.249z M190.09,46.423l-4.84,7.473l-4.586-7.647
	c-4.477,1.777-8.047,6.314-7.967,13.612c8.919,3.38,17.281,3.142,25.201,0C197.835,52.784,194.407,48.311,190.09,46.423z"/>
<linearGradient id="SVGID_2_" gradientUnits="userSpaceOnUse" x1="220.4551" y1="103.377" x2="220.4551" y2="134.9014" gradientTransform="matrix(1 0 0 -1 -0.02 165.0947)">
	<stop  offset="0" style="stop-color:#ED1C24"/>
	<stop  offset="1" style="stop-color:#A71C20"/>
</linearGradient>
<path fill="url(#SVGID_2_)" d="M230.718,32.794c-7.331,7.711-12.188,17.737-12.95,28.923h-3.109
	c0.556-10.487,5.888-21.435,13.283-28.827H210.15v-2.697h20.567V32.794z"/>
</svg>
