<?xml version="1.0" encoding="utf-8"?>
<!-- Generator: Adobe Illustrator 16.0.3, SVG Export Plug-In . SVG Version: 6.00 Build 0)  -->
<!DOCTYPE svg PUBLIC "-//W3C//DTD SVG 1.1//EN" "http://www.w3.org/Graphics/SVG/1.1/DTD/svg11.dtd">
<svg version="1.1" id="Livello_1" xmlns="http://www.w3.org/2000/svg" xmlns:xlink="http://www.w3.org/1999/xlink" x="0px" y="0px"
	 width="247px" height="166px" viewBox="0 0 247 166" enable-background="new 0 0 247 166" xml:space="preserve">
<linearGradient id="SVGID_1_" gradientUnits="userSpaceOnUse" x1="176.8584" y1="102.9004" x2="176.8584" y2="135.1875" gradientTransform="matrix(1 0 0 -1 -0.02 165.0947)">
	<stop  offset="0" style="stop-color:#ED1C24"/>
	<stop  offset="1" style="stop-color:#A71C20"/>
</linearGradient>
<path fill="url(#SVGID_1_)" d="M176.695,44.138c3.937,0,7.111-3.188,7.111-7.123s-3.176-7.108-7.111-7.108
	c-3.934,0-7.125,3.174-7.125,7.108S172.762,44.138,176.695,44.138z M181.616,46.312l-4.825,7.473l-4.602-7.647
	c-4.477,1.777-8.03,6.314-7.967,13.597c8.918,3.396,17.299,3.157,25.231,0C189.377,52.657,185.934,48.184,181.616,46.312z"/>
<linearGradient id="SVGID_2_" gradientUnits="userSpaceOnUse" x1="199.998" y1="103.6309" x2="199.998" y2="135.4727" gradientTransform="matrix(1 0 0 -1 -0.02 165.0947)">
	<stop  offset="0" style="stop-color:#ED1C24"/>
	<stop  offset="1" style="stop-color:#A71C20"/>
</linearGradient>
<path fill="url(#SVGID_2_)" d="M205.611,61.463h-3.016V37.744h-8.253v-2.189c5.476-0.19,7.665-0.27,8.935-5.934h2.334V61.463
	L205.611,61.463z"/>
<linearGradient id="SVGID_3_" gradientUnits="userSpaceOnUse" x1="222.9385" y1="103.6309" x2="222.9385" y2="135.7422" gradientTransform="matrix(1 0 0 -1 -0.02 165.0947)">
	<stop  offset="0" style="stop-color:#ED1C24"/>
	<stop  offset="1" style="stop-color:#A71C20"/>
</linearGradient>
<path fill="url(#SVGID_3_)" d="M233.432,61.463h-21.027c0.412-6.934,4.824-9.662,10.029-13.089c3.604-2.38,7.937-5.062,7.937-9.947
	c0-3.967-2.826-6.568-7.078-6.568c-5.508,0-7.301,4.014-7.301,8.758h-2.824v-0.413c0-6.742,3.888-10.852,10.269-10.852
	c5.981,0,9.854,3.554,9.854,9.027c0,6.346-5.649,9.773-10.349,12.771c-3.063,1.968-6.666,4.109-7.301,7.806
	c0.318,0,0.588-0.048,0.762-0.048h17.029V61.463z"/>
</svg>
