<?xml version="1.0" encoding="utf-8"?>
<!-- Generator: Adobe Illustrator 16.0.3, SVG Export Plug-In . SVG Version: 6.00 Build 0)  -->
<!DOCTYPE svg PUBLIC "-//W3C//DTD SVG 1.1//EN" "http://www.w3.org/Graphics/SVG/1.1/DTD/svg11.dtd">
<svg version="1.1" id="Livello_1" xmlns="http://www.w3.org/2000/svg" xmlns:xlink="http://www.w3.org/1999/xlink" x="0px" y="0px"
	 width="247px" height="166px" viewBox="0 0 247 166" enable-background="new 0 0 247 166" xml:space="preserve">
<rect fill="none" width="247" height="166"/>
<linearGradient id="SVGID_1_" gradientUnits="userSpaceOnUse" x1="212.0215" y1="143.0361" x2="212.0215" y2="110.7529">
	<stop  offset="0" style="stop-color:#00CAF8"/>
	<stop  offset="1" style="stop-color:#0091DE"/>
</linearGradient>
<path fill-rule="evenodd" clip-rule="evenodd" fill="url(#SVGID_1_)" d="M198.011,128.304l-0.016-0.064v-0.064
	c-0.176-1.554-0.096-3.108,0.221-4.601l0.033-0.063l0.016-0.08c0.459-2.077,1.396-3.966,2.682-5.569
	c1.254-1.618,2.889-2.981,4.793-3.919l0.094-0.047h0.033c0.443-0.223,0.904-0.412,1.381-0.586l1.236-0.207
	c3.143-0.508,5.604,0.492,7.032,2.729c-1.049-0.35-2.174-0.539-3.351-0.555c-0.555-0.016-1.078,0.016-1.602,0.08l0,0
	c-0.445,0.063-0.889,0.158-1.334,0.27c-0.793,0.205-1.555,0.492-2.252,0.839l-0.064,0.031l-0.047,0.016
	c-1,0.525-1.938,1.191-2.746,1.969c-0.35,0.35-0.682,0.715-0.984,1.096c-0.316,0.396-0.586,0.793-0.84,1.236
	c-0.572,0.952-1,2.015-1.287,3.11v0.049l-0.016,0.078c-0.174,0.762-0.27,1.555-0.285,2.381c-0.016,0.49,0.016,0.982,0.08,1.442
	v0.111c0.031,0.127,0.031,0.285,0.063,0.412l-1.523,4.362v-0.016C198.661,131.366,198.2,129.89,198.011,128.304L198.011,128.304z
	 M210.149,128.651l1.492,1.492l0.904-0.889c0.08,0,0.143,0,0.207-0.031l1.128,1.523l0.84-0.635l-1.094-1.492
	c0.111-0.191,0.189-0.396,0.207-0.635l4.57-4.538l-1.492-1.49l-4.747,4.695l-5.602-7.552l-0.855,0.635l5.633,7.585
	c-0.047,0.078-0.08,0.174-0.111,0.269L210.149,128.651L210.149,128.651z M202.47,129.444l-1.461,4.157l-1.459,4.158l1.967-0.381
	c2.793,5.966,9.395,6.996,15.997,4.11c-5.458,1.967-9.554-0.652-11.394-4.968l2.094-0.412L202.47,129.444L202.47,129.444z
	 M220.783,125.875l2.191-3.824l2.189-3.808h-1.984c-1.666-6.378-7.982-8.6-14.997-6.981c5.745-0.919,9.269,2.412,10.315,6.981
	h-2.143l2.207,3.808L220.783,125.875L220.783,125.875z M225.291,121.766l-2.031,3.523v0.031c0.063,0.461,0.078,0.938,0.063,1.412
	c0,0.461-0.031,0.903-0.094,1.349l0,0c-0.191,1.523-0.699,2.982-1.492,4.285c-1.461,2.489-3.904,4.409-6.92,5.171
	c-1.078,0.285-2.128,0.381-3.175,0.35l0,0c-0.602-0.016-1.174-0.08-1.746-0.189l-0.84,0.158c1.824,2.315,4.603,3.046,7.841,1.872
	l1.348-0.477c2.508-1.222,4.539-3.142,5.904-5.458c1.539-2.587,2.252-5.665,1.904-8.805l-0.016-0.064l-0.016-0.08
	C225.893,123.797,225.639,122.75,225.291,121.766L225.291,121.766z M203.978,121.844l0.207-0.362l-1.111-0.668l-0.223,0.35
	L203.978,121.844L203.978,121.844z M220.053,131.317l1.145,0.666l-0.223,0.367l-1.127-0.668L220.053,131.317L220.053,131.317z
	 M209.817,119.386l0.904-0.236l-0.73-2.841l-0.889,0.222L209.817,119.386L209.817,119.386z M214.342,137.141l-0.73-2.84l0.889-0.223
	l0.729,2.824L214.342,137.141z"/>
</svg>
