<?xml version="1.0" encoding="utf-8"?>
<!-- Generator: Adobe Illustrator 16.0.3, SVG Export Plug-In . SVG Version: 6.00 Build 0)  -->
<!DOCTYPE svg PUBLIC "-//W3C//DTD SVG 1.1//EN" "http://www.w3.org/Graphics/SVG/1.1/DTD/svg11.dtd">
<svg version="1.1" id="Livello_1" xmlns="http://www.w3.org/2000/svg" xmlns:xlink="http://www.w3.org/1999/xlink" x="0px" y="0px"
	 width="247px" height="166px" viewBox="0 0 247 166" enable-background="new 0 0 247 166" xml:space="preserve">
<rect fill="none" width="247" height="166"/>
<linearGradient id="SVGID_1_" gradientUnits="userSpaceOnUse" x1="212.0215" y1="143.0449" x2="212.0215" y2="110.7451">
	<stop  offset="0" style="stop-color:#ED1C24"/>
	<stop  offset="1" style="stop-color:#A71C20"/>
</linearGradient>
<path fill-rule="evenodd" clip-rule="evenodd" fill="url(#SVGID_1_)" d="M198.008,128.304L198,128.24l-0.008-0.063
	c-0.175-1.556-0.087-3.111,0.229-4.604l0.016-0.063l0.024-0.08c0.468-2.079,1.396-3.969,2.675-5.572
	c1.262-1.619,2.896-2.984,4.802-3.921l0.088-0.048h0.039c0.444-0.222,0.905-0.412,1.381-0.587l1.238-0.206
	c3.144-0.508,5.596,0.492,7.04,2.73c-1.056-0.35-2.183-0.54-3.357-0.556c-0.547-0.017-1.079,0.016-1.603,0.079l0,0
	c-0.445,0.063-0.89,0.159-1.334,0.27c-0.794,0.207-1.556,0.492-2.262,0.842l-0.063,0.031l-0.04,0.017
	c-1.008,0.523-1.937,1.19-2.738,1.968c-0.357,0.35-0.69,0.715-0.992,1.096c-0.31,0.396-0.587,0.794-0.841,1.238
	c-0.572,0.952-1.009,2.016-1.278,3.111l-0.008,0.048l-0.016,0.079c-0.175,0.762-0.278,1.556-0.286,2.382
	c-0.008,0.491,0.016,0.983,0.071,1.444l0.008,0.111c0.024,0.127,0.04,0.285,0.063,0.412l-1.523,4.366l-0.008-0.017
	C198.65,131.367,198.198,129.891,198.008,128.304L198.008,128.304z M210.159,128.652l1.492,1.492l0.897-0.889
	c0.071,0,0.143,0,0.214-0.031l1.119,1.523l0.85-0.635l-1.104-1.492c0.119-0.19,0.19-0.396,0.198-0.635l4.579-4.541l-1.492-1.492
	l-4.746,4.699l-5.604-7.557l-0.849,0.636l5.627,7.588c-0.048,0.079-0.087,0.175-0.111,0.27L210.159,128.652L210.159,128.652z
	 M202.468,129.446l-1.452,4.159l-1.469,4.159l1.961-0.381c2.802,5.969,9.413,7.001,16.017,4.111
	c-5.477,1.969-9.556-0.65-11.405-4.969l2.096-0.412L202.468,129.446L202.468,129.446z M220.779,125.875l2.198-3.826l2.19-3.81
	h-1.984c-1.667-6.382-7.977-8.604-14.993-6.985c5.747-0.921,9.271,2.413,10.303,6.985h-2.135l2.206,3.81L220.779,125.875
	L220.779,125.875z M225.295,121.763l-2.031,3.524v0.032c0.055,0.46,0.079,0.937,0.071,1.413c-0.008,0.46-0.04,0.904-0.096,1.349l0,0
	c-0.198,1.524-0.714,2.984-1.492,4.286c-1.477,2.492-3.913,4.413-6.937,5.176c-1.063,0.285-2.127,0.381-3.175,0.349h0.008
	c-0.596-0.016-1.175-0.079-1.738-0.19l-0.85,0.159c1.834,2.317,4.604,3.048,7.842,1.873l1.342-0.477
	c2.508-1.222,4.54-3.143,5.913-5.461c1.54-2.587,2.254-5.667,1.896-8.811l-0.008-0.063l-0.008-0.079
	C225.898,123.795,225.652,122.747,225.295,121.763L225.295,121.763z M203.977,121.843l0.214-0.365l-1.127-0.667l-0.214,0.35
	L203.977,121.843L203.977,121.843z M220.064,131.319l1.127,0.667l-0.214,0.365l-1.127-0.667L220.064,131.319L220.064,131.319z
	 M209.818,119.382l0.896-0.238l-0.723-2.842l-0.896,0.223L209.818,119.382L209.818,119.382z M214.334,137.146l-0.722-2.841
	l0.896-0.223l0.723,2.825L214.334,137.146z"/>
</svg>
