<?xml version="1.0" encoding="utf-8"?>
<!-- Generator: Adobe Illustrator 16.0.3, SVG Export Plug-In . SVG Version: 6.00 Build 0)  -->
<!DOCTYPE svg PUBLIC "-//W3C//DTD SVG 1.1//EN" "http://www.w3.org/Graphics/SVG/1.1/DTD/svg11.dtd">
<svg version="1.1" id="Livello_1" xmlns="http://www.w3.org/2000/svg" xmlns:xlink="http://www.w3.org/1999/xlink" x="0px" y="0px"
	 width="247px" height="166px" viewBox="0 0 247 166" enable-background="new 0 0 247 166" xml:space="preserve">
<linearGradient id="SVGID_1_" gradientUnits="userSpaceOnUse" x1="59.3105" y1="819.8809" x2="59.3104" y2="703.7822" gradientTransform="matrix(1 0 0 1 -0.04 -676.8105)">
	<stop  offset="0" style="stop-color:#00C9F7"/>
	<stop  offset="1" style="stop-color:#0090DD"/>
</linearGradient>
<path fill="url(#SVGID_1_)" d="M97.34,143.07H21.201c1.333-18.412,12.759-29.025,27.532-38.978l10.284-6.965
	c13.6-9.291,29.69-20.072,29.69-38.479c0-15.588-10.949-25.712-28.358-25.712c-21.899,0-29.69,15.264-30.024,34.503h-6.808
	c0.158-1.492,0.158-2.658,0.158-3.483c0.841-22.063,13.616-36.986,37.006-36.986c21.233,0,34.833,12.439,34.833,31.512
	c0,15.256-8.618,25.373-19.917,34.33c-5.633,4.481-6.633,5.307-19.899,14.266c-11.267,7.633-24.057,15.596-26.882,29.854h68.522
	v6.139H97.34L97.34,143.07z"/>
</svg>
