<?xml version="1.0" encoding="utf-8"?>
<!-- Generator: Adobe Illustrator 16.0.3, SVG Export Plug-In . SVG Version: 6.00 Build 0)  -->
<!DOCTYPE svg PUBLIC "-//W3C//DTD SVG 1.1//EN" "http://www.w3.org/Graphics/SVG/1.1/DTD/svg11.dtd">
<svg version="1.1" id="Livello_1" xmlns="http://www.w3.org/2000/svg" xmlns:xlink="http://www.w3.org/1999/xlink" x="0px" y="0px"
	 width="247px" height="166px" viewBox="0 0 247 166" enable-background="new 0 0 247 166" xml:space="preserve">
<linearGradient id="SVGID_1_" gradientUnits="userSpaceOnUse" x1="60.5015" y1="822.373" x2="60.5015" y2="703.7852" gradientTransform="matrix(1 0 0 1 -0.04 -676.8105)">
	<stop  offset="0" style="stop-color:#00C9F7"/>
	<stop  offset="1" style="stop-color:#0090DD"/>
</linearGradient>
<path fill="url(#SVGID_1_)" d="M61.707,26.974c21.233,0,35.333,11.939,35.333,29.521c0,14.264-10.291,24.046-22.891,25.545
	c14.1,2.315,25.874,11.106,25.874,28.687c0,20.738-15.924,34.836-39.315,34.836c-24.383,0-39.808-14.264-39.808-36.828v-3.313h6.467
	v2.326c0,19.901,12.608,31.844,33.508,31.844c19.074,0,32.349-11.606,32.349-28.194c0-20.896-17.091-26.203-34.674-26.203h-3.816
	V79.55h4.649c19.742,0,30.849-8.124,30.849-22.888c0-14.432-11.107-23.722-28.691-23.722c-19.741,0-30.857,11.281-31.523,32.012
	h-6.134C24.216,41.071,38.149,26.974,61.707,26.974z"/>
</svg>
