<?xml version="1.0" encoding="utf-8"?>
<!-- Generator: Adobe Illustrator 16.0.3, SVG Export Plug-In . SVG Version: 6.00 Build 0)  -->
<!DOCTYPE svg PUBLIC "-//W3C//DTD SVG 1.1//EN" "http://www.w3.org/Graphics/SVG/1.1/DTD/svg11.dtd">
<svg version="1.1" id="Livello_1" xmlns="http://www.w3.org/2000/svg" xmlns:xlink="http://www.w3.org/1999/xlink" x="0px" y="0px"
	 width="247px" height="166px" viewBox="0 0 247 166" enable-background="new 0 0 247 166" xml:space="preserve">
<linearGradient id="SVGID_1_" gradientUnits="userSpaceOnUse" x1="60.9966" y1="822.375" x2="60.9966" y2="703.7842" gradientTransform="matrix(1 0 0 1 -0.04 -676.8105)">
	<stop  offset="0" style="stop-color:#00C9F7"/>
	<stop  offset="1" style="stop-color:#0090DD"/>
</linearGradient>
<path fill="url(#SVGID_1_)" d="M25.535,55.82c0-17.914,13.601-28.847,35.5-28.847c22.061,0,35.502,10.599,35.502,28.513
	c0,14.105-9.125,22.896-21.234,25.721c14.934,2.158,25.884,12.439,25.884,29.354c0,21.726-15.108,35.004-39.817,35.004
	c-25.219,0-40.644-13.104-40.644-34.338c0-17.088,11.268-27.703,26.217-30.02C33.168,78.049,25.535,69.084,25.535,55.82z
	 M27.693,111.053c0,17.914,12.616,28.703,33.501,28.703c20.567,0,33.009-10.947,33.009-28.703c0-16.914-12.441-27.037-33.501-27.037
	C40.134,84.016,27.693,94.313,27.693,111.053z M32.341,55.979c0,14.105,10.951,22.563,28.853,22.563
	c17.758,0,28.534-8.457,28.534-22.721c0-14.598-10.442-22.881-28.852-22.881C42.785,32.939,32.341,41.381,32.341,55.979z"/>
</svg>
