<?xml version="1.0" encoding="utf-8"?>
<!-- Generator: Adobe Illustrator 16.0.3, SVG Export Plug-In . SVG Version: 6.00 Build 0)  -->
<!DOCTYPE svg PUBLIC "-//W3C//DTD SVG 1.1//EN" "http://www.w3.org/Graphics/SVG/1.1/DTD/svg11.dtd">
<svg version="1.1" id="Livello_1" xmlns="http://www.w3.org/2000/svg" xmlns:xlink="http://www.w3.org/1999/xlink" x="0px" y="0px"
	 width="247px" height="166px" viewBox="0 0 247 166" enable-background="new 0 0 247 166" xml:space="preserve">
<linearGradient id="SVGID_1_" gradientUnits="userSpaceOnUse" x1="85.5693" y1="822.373" x2="85.5692" y2="703.7852" gradientTransform="matrix(1 0 0 1 -0.04 -676.8105)">
	<stop  offset="0" style="stop-color:#00C9F7"/>
	<stop  offset="1" style="stop-color:#0090DD"/>
</linearGradient>
<path fill="url(#SVGID_1_)" d="M19.947,50.188v5.633c13.1-1.492,20.899-5.142,30.357-14.598v101.833h6.967V28.956h-5.975
	C41.513,43.222,34.546,47.029,19.947,50.188z M109.646,26.974c-33.507,0-41.474,34.32-41.474,61.024
	c0,37.16,14.6,57.564,41.141,57.564c33.341,0,41.798-32.353,41.798-59.39C151.111,59.469,142.654,26.974,109.646,26.974z
	 M109.313,139.582c-28.199,0-34.332-28.861-34.332-51.25c0-34.828,12.767-55.075,34.665-55.075c28.7,0,34.499,30.687,34.499,53.091
	C144.145,108.895,138.012,139.582,109.313,139.582z"/>
</svg>
