<?xml version="1.0" encoding="utf-8"?>
<!-- Generator: Adobe Illustrator 16.0.3, SVG Export Plug-In . SVG Version: 6.00 Build 0)  -->
<!DOCTYPE svg PUBLIC "-//W3C//DTD SVG 1.1//EN" "http://www.w3.org/Graphics/SVG/1.1/DTD/svg11.dtd">
<svg version="1.1" id="Livello_1" xmlns="http://www.w3.org/2000/svg" xmlns:xlink="http://www.w3.org/1999/xlink" x="0px" y="0px"
	 width="247px" height="166px" viewBox="0 0 247 166" enable-background="new 0 0 247 166" xml:space="preserve">
<linearGradient id="SVGID_1_" gradientUnits="userSpaceOnUse" x1="60.334" y1="822.375" x2="60.334" y2="703.7861" gradientTransform="matrix(1 0 0 1 -0.04 -676.8105)">
	<stop  offset="0" style="stop-color:#00C9F7"/>
	<stop  offset="1" style="stop-color:#0090DD"/>
</linearGradient>
<path fill="url(#SVGID_1_)" d="M30.349,116.02c2.492,14.439,13.767,23.564,28.866,23.564c22.224,0,34.34-19.248,34.34-54.234v-6.3
	c-5.642,14.757-16.258,25.546-34.84,25.546c-21.892,0-38.149-16.264-38.149-38.493c0-22.214,16.583-39.128,38.649-39.128
	c13.433,0,24.882,5.792,31.849,16.089c6.133,9.108,8.958,21.389,8.958,39.795c0,27.196-5.809,62.706-40.974,62.706
	c-19.074,0-33.007-11.612-35.332-29.543h6.633V116.02z M27.365,65.943c0,18.739,13.6,32.67,32.016,32.67
	c18.408,0,32.183-13.932,32.183-32.829c0-18.596-14.1-32.845-32.349-32.845C41.299,32.939,27.365,47.188,27.365,65.943z"/>
</svg>
